<?xml version="1.0" encoding="iso-8859-1"?>
<!-- Generator: Adobe Illustrator 19.0.0, SVG Export Plug-In . SVG Version: 6.00 Build 0)  -->
<svg version="1.1" id="Layer_1" xmlns="http://www.w3.org/2000/svg" xmlns:xlink="http://www.w3.org/1999/xlink" x="0px" y="0px"
	 viewBox="0 0 512 512" style="enable-background:new 0 0 512 512;" xml:space="preserve">
<g>
	<path style="fill:#B3404A;" d="M453.812,333.052H260.887c-29.858,0-54.148-24.291-54.148-54.148V54.15
		C206.738,24.291,231.03,0,260.887,0h192.924c29.858,0,54.15,24.291,54.15,54.15v224.753
		C507.962,308.761,483.671,333.052,453.812,333.052z M260.887,28.593c-14.091,0-25.555,11.464-25.555,25.556v224.753
		c0,14.091,11.464,25.555,25.555,25.555h192.924c14.091,0,25.556-11.464,25.556-25.555V54.15c0-14.092-11.466-25.556-25.556-25.556
		H260.887z"/>
	<path style="fill:#B3404A;" d="M376.364,411.222h-38.027c-20.404,0-37.007-16.601-37.007-37.007v-47.752
		c0-7.896,6.402-14.297,14.297-14.297s14.297,6.401,14.297,14.297v47.752c0,4.639,3.774,8.414,8.413,8.414h38.027
		c4.639,0,8.414-3.774,8.414-8.414v-12.521c0-7.896,6.402-14.297,14.297-14.297c7.895,0,14.297,6.401,14.297,14.297v12.521
		C413.37,394.621,396.768,411.222,376.364,411.222z"/>
	<path style="fill:#B3404A;" d="M293.374,118.997h-72.32c-7.895,0-14.297-6.401-14.297-14.297s6.402-14.297,14.297-14.297h72.32
		c7.895,0,14.297,6.401,14.297,14.297S301.27,118.997,293.374,118.997z"/>
	<path style="fill:#B3404A;" d="M293.374,194.639h-72.32c-7.895,0-14.297-6.401-14.297-14.297s6.402-14.297,14.297-14.297h72.32
		c7.895,0,14.297,6.401,14.297,14.297S301.27,194.639,293.374,194.639z"/>
	<path style="fill:#B3404A;" d="M321.192,270.279H221.054c-7.895,0-14.297-6.401-14.297-14.297c0-7.896,6.402-14.297,14.297-14.297
		h100.139c7.895,0,14.297,6.401,14.297,14.297C335.489,263.878,329.088,270.279,321.192,270.279z"/>
</g>
<path style="fill:#F4B2B0;" d="M283.621,234.279V104.701h147.457v129.578c0,12.091-9.802,21.892-21.892,21.892H305.512
	C293.423,256.171,283.621,246.369,283.621,234.279z"/>
<g>
	<path style="fill:#B3404A;" d="M409.187,270.467H305.513c-19.955,0-36.189-16.234-36.189-36.189V104.701
		c0-7.896,6.402-14.297,14.297-14.297h147.459c7.895,0,14.297,6.401,14.297,14.297v129.578
		C445.375,254.232,429.141,270.467,409.187,270.467z M297.917,118.997v115.281c0,4.189,3.408,7.596,7.596,7.596h103.674
		c4.189,0,7.596-3.407,7.596-7.596V118.997H297.917z"/>
	<path style="fill:#B3404A;" d="M305.619,512h-158.3c-37.197,0-67.458-30.261-67.458-67.46v-11.261
		c0-7.896,6.402-14.297,14.297-14.297s14.297,6.401,14.297,14.297v11.261c0,21.43,17.435,38.867,38.865,38.867h158.3
		c21.431,0,38.867-17.435,38.867-38.867v-43.051c0-7.896,6.402-14.297,14.297-14.297c7.895,0,14.297,6.401,14.297,14.297v43.051
		C373.077,481.737,342.816,512,305.619,512z"/>
	<path style="fill:#B3404A;" d="M94.158,380.382c-7.895,0-14.297-6.401-14.297-14.297V216.904c0-7.896,6.402-14.297,14.297-14.297
		s14.297,6.401,14.297,14.297v149.181C108.454,373.981,102.054,380.382,94.158,380.382z"/>
</g>
<path style="fill:#F4B2B0;" d="M127.424,166.526c-19.861,0-28.77,11.131-32.277,17.67c-0.44,0.821-1.636,0.821-2.074-0.001
	c-3.494-6.539-12.355-17.669-32.214-17.669c-22.623,0-42.522,15.443-42.522,43.643c0,11.411,2.326,21.187,8.779,32.097
	C40.268,264.499,83.597,293.32,92.498,299c0.984,0.628,2.23,0.629,3.215,0.004c8.908-5.653,52.245-34.332,65.501-56.739
	c6.455-10.91,8.764-20.686,8.764-32.097C169.979,181.969,150.046,166.526,127.424,166.526z"/>
<path style="fill:#B3404A;" d="M94.109,313.767L94.109,313.767c-3.301,0-6.518-0.939-9.304-2.718
	c-9.013-5.75-54.759-35.75-69.993-61.505c-7.45-12.592-10.772-24.737-10.772-39.376c0-33.573,23.897-57.94,56.819-57.94
	c15.347,0,26.043,5.193,33.264,11.156c7.23-5.96,17.939-11.156,33.302-11.156c32.942,0,56.852,24.367,56.852,57.94
	c0,14.658-3.317,26.803-10.755,39.375c-15.34,25.932-61.123,55.805-70.143,61.529C100.598,312.837,97.394,313.767,94.109,313.767z
	 M60.858,180.822c-13.02,0-28.226,7.686-28.226,29.346c0,9.477,1.967,16.667,6.788,24.817c8.827,14.921,36.884,36.026,54.704,47.986
	c17.826-11.909,45.896-32.959,54.786-47.986c4.809-8.13,6.771-15.32,6.771-24.817c0-21.661-15.222-29.346-28.259-29.346
	c-9.453,0-16.072,3.408-19.676,10.129c-2.706,5.035-7.929,8.156-13.636,8.156c-5.727,0-10.958-3.134-13.652-8.183
	C76.879,184.224,70.282,180.822,60.858,180.822z"/>
<g>
</g>
<g>
</g>
<g>
</g>
<g>
</g>
<g>
</g>
<g>
</g>
<g>
</g>
<g>
</g>
<g>
</g>
<g>
</g>
<g>
</g>
<g>
</g>
<g>
</g>
<g>
</g>
<g>
</g>
</svg>
